<svg xmlns="http://www.w3.org/2000/svg" width="116.577" height="117.24" viewBox="0 0 116.577 117.24">
  <g id="branding" transform="translate(-6.256 -5.329)">
    <path id="Path_284" data-name="Path 284" d="M146.035,37.988H85.821L68.746,55v76.633h73.122a4.165,4.165,0,0,0,4.165-4.165Z" transform="translate(-40.245 -21.033)" fill="#cae7ff"/>
    <path id="Path_285" data-name="Path 285" d="M16.5,210.457l1.737-8.752a4.748,4.748,0,0,0-.551-3.314,36.234,36.234,0,0,1-4.668-14.828,3.745,3.745,0,0,1,1.418-3.251l2.19-1.725s-.3-2.1-.441-4.68a3.765,3.765,0,0,1,1.51-3.226l4.971-3.691a2.816,2.816,0,0,1,4.48,1.973l.066.644,2.83-1.472a2.4,2.4,0,0,1,3.489,1.814,97.007,97.007,0,0,0,3.222,15.681,9.119,9.119,0,0,0,3.759,4.817,45.172,45.172,0,0,0,10.7,5.189l-1.035,3.358a4.291,4.291,0,0,1-4.094,3.03,65.64,65.64,0,0,1-6.681-.294l-3.326,12.63Z" transform="translate(-4.347 -103.755)" fill="#ffd3bd"/>
    <path id="Path_286" data-name="Path 286" d="M85.821,37.988v13.24A3.773,3.773,0,0,1,82.048,55h-13.3Z" transform="translate(-40.245 -21.033)" fill="#86bbef"/>
    <path id="Path_287" data-name="Path 287" d="M158.471,122.341a21.466,21.466,0,1,0-32.216,18.579,2.687,2.687,0,0,1,1.329,2.327v4.913H146.43v-4.91a2.67,2.67,0,0,1,1.31-2.319A21.453,21.453,0,0,0,158.471,122.341Z" transform="translate(-70.38 -61.532)" fill="#ffde76"/>
    <path id="Path_288" data-name="Path 288" d="M149.375,233.706h18.846v4.831a8.089,8.089,0,0,1-8.089,8.089h-2.668a8.089,8.089,0,0,1-8.09-8.09Z" transform="translate(-92.172 -147.079)" fill="#efac52"/>
    <path id="Path_289" data-name="Path 289" d="M174.667,118.95a14.429,14.429,0,0,1,13.151,13.184c0,.054.009.107.012.162a3.144,3.144,0,0,1-5.3,2.482c-3.464-3.27-7.424-7.032-11.014-10.451a3.148,3.148,0,0,1,2.255-5.423q.444.009.894.046Z" transform="translate(-105.805 -73.144)" fill="#fff7e1"/>
    <path id="Path_290" data-name="Path 290" d="M215.186,14.845l-8.9.692a4.746,4.746,0,0,1-3.226-.938A36.239,36.239,0,0,0,188.89,8.212a3.745,3.745,0,0,0-3.4,1.025l-1.972,1.971s-2.049-.55-4.6-.99a3.765,3.765,0,0,0-3.382,1.118l-4.252,4.5a2.816,2.816,0,0,0,1.429,4.681l.631.142-1.8,2.636a2.4,2.4,0,0,0,1.388,3.679,97.01,97.01,0,0,1,15.19,5.051,9.121,9.121,0,0,1,4.343,4.3,45.17,45.17,0,0,1,3.888,11.241l3.457-.631a4.291,4.291,0,0,0,3.492-3.707,65.525,65.525,0,0,0,.5-6.669l12.932-1.809Z" transform="translate(-105.792 -1.808)" fill="#ffd3bd"/>
    <path id="Path_291" data-name="Path 291" d="M210.865,222.782a3.2,3.2,0,0,1-.788-4.455L242.262,172.3a9.879,9.879,0,0,1,3.22-2.931l3.871-2.2a.431.431,0,0,1,.636.453l-.814,4.4a9.878,9.878,0,0,1-1.619,3.866l-32.235,46.1a3.2,3.2,0,0,1-4.455.789Z" transform="translate(-130.893 -104.193)" fill="#ff8080"/>
    <path id="Path_292" data-name="Path 292" d="M10.257,296.936l2.4-10.95,24.982,5.185-2.593,10.723s-15.868-1.726-24.787-4.958Z" transform="translate(-2.577 -180.749)" fill="#cae7ff"/>
    <path id="Path_293" data-name="Path 293" d="M303.743,17.651l-11.157,1.088,2.2,25.42,10.955-1.308s.16-15.96-2-25.2Z" transform="translate(-184.403 -7.935)" fill="#cae7ff"/>
    <g id="Group_87" data-name="Group 87" transform="translate(6.256 5.329)">
      <path id="Path_294" data-name="Path 294" d="M95.286,33.988H83.248c-.01,0-.02,0-.03,0a1.406,1.406,0,0,0-.245.024.114.114,0,0,0-.021.005,1.432,1.432,0,0,0-.219.067c-.025.009-.048.02-.071.031a1.411,1.411,0,0,0-.16.085c-.021.013-.043.025-.064.04a1.407,1.407,0,0,0-.2.16L65.168,51.419a1.383,1.383,0,0,0-.162.2c-.014.02-.026.042-.04.063a1.38,1.38,0,0,0-.087.163c-.01.023-.021.045-.03.068a1.417,1.417,0,0,0-.071.236v.005a1.447,1.447,0,0,0-.025.249c0,.01,0,.019,0,.029V76.247a1.424,1.424,0,1,0,2.848,0v-22.4H79.475a5.2,5.2,0,0,0,5.2-5.2V36.836H95.286a1.424,1.424,0,0,0,0-2.848ZM81.824,48.652A2.354,2.354,0,0,1,79.475,51H69.619l1.336-1.331L81.824,38.841Z" transform="translate(-43.928 -23.786)" fill="#494151"/>
      <path id="Path_295" data-name="Path 295" d="M104.06,169.22a1.424,1.424,0,1,0,0,2.848h36.93l-.9,1.29a4.623,4.623,0,1,0,7.578,5.3l18.771-26.845v14.666a2.746,2.746,0,0,1-2.741,2.741h-4.638a1.424,1.424,0,1,0,0,2.848H163.7a5.6,5.6,0,0,0,5.589-5.589V147.739L179.9,132.557a11.229,11.229,0,0,0,1.851-4.423l.982-5.313a1.424,1.424,0,0,0-2.1-1.5l-4.675,2.653a11.37,11.37,0,0,0-3.684,3.353l-2.988,4.274V99.98a1.424,1.424,0,1,0-2.848,0v34.892a1.407,1.407,0,0,0,.14.605L142.98,169.22Zm70.547-40.258a8.505,8.505,0,0,1,2.756-2.508l2.016-1.144-.427,2.307a8.4,8.4,0,0,1-1.385,3.311L166.679,146.5l-21.348,30.53a1.775,1.775,0,1,1-2.91-2.035Z" transform="translate(-68.327 -65.369)" fill="#494151"/>
      <path id="Path_296" data-name="Path 296" d="M7.2,218.708c8.977,3.253,24.464,4.964,25.118,5.035a1.426,1.426,0,0,0,1.538-1.081l2.593-10.723a1.424,1.424,0,0,0-1.095-1.729l-1.638-.34,2.419-9.187c2.033.158,4.107.187,5.613.191A5.687,5.687,0,0,0,47.2,196.84l1.035-3.358a1.424,1.424,0,0,0-.961-1.786,43.505,43.505,0,0,1-10.337-5.023,7.725,7.725,0,0,1-3.174-4.065A96.674,96.674,0,0,1,30.6,167.186,3.826,3.826,0,0,0,25.04,164.3l-1.18.614a4.249,4.249,0,0,0-6.388-1.637l-4.971,3.69a5.179,5.179,0,0,0-2.083,4.444c.088,1.665.243,3.124.347,3.987L9.21,176.621a5.153,5.153,0,0,0-1.958,4.488,37.582,37.582,0,0,0,4.858,15.425,3.325,3.325,0,0,1,.385,2.321l-1.261,6.35-.866-.178a1.424,1.424,0,0,0-1.68,1.09l-2.4,10.949a1.424,1.424,0,0,0,.906,1.643Zm2.9-37.838a2.314,2.314,0,0,1,.881-2.013l.255-.2a32.733,32.733,0,0,0,2.347,7.714,1.424,1.424,0,1,0,2.582-1.2,32.452,32.452,0,0,1-2.456-9.285.211.211,0,0,0,0-.025.225.225,0,0,0,0-.049c0-.016-.3-2.073-.427-4.552a2.338,2.338,0,0,1,.937-2.008l1.345-1c.211,3.485.878,9.6,2.981,14.446a1.424,1.424,0,0,0,2.613-1.133c-2.375-5.476-2.766-13.044-2.831-15.364l.862-.641a1.392,1.392,0,0,1,2.215.976l.064.628a85.887,85.887,0,0,0,2.143,12.863,1.424,1.424,0,1,0,2.752-.732,81.57,81.57,0,0,1-1.967-11.441l1.977-1.029a.978.978,0,0,1,1.42.74A96.807,96.807,0,0,0,31.058,183.5a10.581,10.581,0,0,0,4.343,5.57,49.612,49.612,0,0,0,9.694,4.912L44.474,196a2.854,2.854,0,0,1-2.734,2.026,64.673,64.673,0,0,1-6.529-.287,1.426,1.426,0,0,0-1.528,1.053l-2.764,10.5-16.9-3.509,1.266-6.374a6.168,6.168,0,0,0-.717-4.307,34.676,34.676,0,0,1-4.48-14.231ZM11.167,208.1l22.163,4.6-1.95,8.066c-3.683-.454-14.738-1.946-22.038-4.33Z" transform="translate(-6.256 -106.511)" fill="#494151"/>
      <path id="Path_297" data-name="Path 297" d="M221.409,8.4,210.263,9.588A1.424,1.424,0,0,0,209,11.139l.084.881-6.45.557a3.316,3.316,0,0,1-2.265-.636,37.582,37.582,0,0,0-14.8-6.515,5.155,5.155,0,0,0-4.675,1.453L179.5,8.29c-.847-.2-2.278-.511-3.925-.783a5.181,5.181,0,0,0-4.644,1.585l-4.71,5.069a3.829,3.829,0,0,0,1.33,6.136l-.318.476a4.238,4.238,0,0,0,2.484,6.467,92.381,92.381,0,0,1,14.433,4.694,7.727,7.727,0,0,1,3.693,3.6,43.477,43.477,0,0,1,3.86,10.825,1.424,1.424,0,0,0,1.67,1.151l3.451-.661a5.688,5.688,0,0,0,4.607-4.978c.166-1.487.359-3.56.425-5.6l9.4-1.4.158,1.665a1.424,1.424,0,0,0,1.416,1.289,1.473,1.473,0,0,0,.181-.011l10.943-1.4A1.424,1.424,0,0,0,225.2,35c0-.659,0-16.239-2.254-25.519a1.427,1.427,0,0,0-1.534-1.08ZM200.247,33.632a1.424,1.424,0,0,0-1.215,1.4,64.807,64.807,0,0,1-.43,6.521,2.854,2.854,0,0,1-2.314,2.5l-2.071.4a49.561,49.561,0,0,0-3.82-10.174,10.581,10.581,0,0,0-5.059-4.927,94.988,94.988,0,0,0-14.924-4.869,1.391,1.391,0,0,1-.813-2.123l.912-1.363A81.6,81.6,0,0,1,181.67,24.2a1.424,1.424,0,1,0,1.029-2.655,85.937,85.937,0,0,0-12.553-3.539l-1.327-.285a.978.978,0,0,1-.51-1.621l1.227-1.321c2.3.317,9.769,1.531,14.961,4.5a1.424,1.424,0,0,0,1.413-2.473c-4.59-2.621-10.591-3.954-14.032-4.545l1.139-1.228a2.338,2.338,0,0,1,2.1-.712c2.45.4,4.457.919,4.478.926a.34.34,0,0,0,.048.009.141.141,0,0,1,.026.008,32.355,32.355,0,0,1,8.959,3.459,1.424,1.424,0,0,0,1.477-2.435,32.72,32.72,0,0,0-7.41-3.177l.228-.232a2.316,2.316,0,0,1,2.1-.655,34.679,34.679,0,0,1,13.655,6.011,6.172,6.172,0,0,0,4.2,1.184l6.475-.56,1.635,17.18ZM214.109,34.8l-2.144-22.533,8.483-.9c1.569,7.514,1.843,18.669,1.891,22.379Z" transform="translate(-108.619 -5.329)" fill="#494151"/>
      <path id="Path_298" data-name="Path 298" d="M134.106,96.884a22.889,22.889,0,0,0-11.14,42.7,1.265,1.265,0,0,1,.62,1.1v9.743a9.524,9.524,0,0,0,9.513,9.513h2.667a9.524,9.524,0,0,0,9.513-9.513v-4.831a1.424,1.424,0,0,0-1.424-1.424h-4.861v-4.136a3.761,3.761,0,0,1,1.562-3.056c2.4-1.713,6.569-5.352,7.609-10.5a14.413,14.413,0,0,0-.809-7.411,7.967,7.967,0,0,0-5.131-4.518,7.878,7.878,0,0,0-6.681,1.049,1.424,1.424,0,1,0,1.612,2.348,5.043,5.043,0,0,1,4.276-.661,5.128,5.128,0,0,1,3.306,2.906,11.642,11.642,0,0,1,.629,5.754c-.841,4.161-4.414,7.247-6.468,8.717a6.613,6.613,0,0,0-2.753,5.373v4.136h-3.138v-4.136a6.613,6.613,0,0,0-2.753-5.373,19.239,19.239,0,0,1-4.806-4.821,1.424,1.424,0,1,0-2.377,1.569,22.1,22.1,0,0,0,5.526,5.57,3.76,3.76,0,0,1,1.562,3.056v4.136h-3.727v-3.489a4.121,4.121,0,0,0-2.039-3.56,20.041,20.041,0,1,1,20.058.01,4.1,4.1,0,0,0-2.021,3.551,1.424,1.424,0,1,0,2.848,0,1.246,1.246,0,0,1,.6-1.084,22.89,22.89,0,0,0-11.773-42.709Zm-7.672,50.128h16v3.407a6.673,6.673,0,0,1-6.665,6.665H133.1a6.673,6.673,0,0,1-6.666-6.665Z" transform="translate(-74.062 -64.291)" fill="#494151"/>
      <path id="Path_299" data-name="Path 299" d="M63.69,310.657a1.365,1.365,0,0,0-.267.082,1.63,1.63,0,0,0-.246.128,1.744,1.744,0,0,0-.217.178,1.427,1.427,0,0,0,0,2.015,1.749,1.749,0,0,0,.217.178,1.63,1.63,0,0,0,.246.128,1.361,1.361,0,0,0,.267.082,1.468,1.468,0,0,0,.278.029,1.424,1.424,0,1,0-.278-2.819Z" transform="translate(-42.507 -201.949)" fill="#494151"/>
      <path id="Path_300" data-name="Path 300" d="M314,70.535a1.629,1.629,0,0,0-.132-.246,1.754,1.754,0,0,0-.178-.217,1.31,1.31,0,0,0-.217-.174,1.252,1.252,0,0,0-.246-.132,1.363,1.363,0,0,0-.267-.082,1.4,1.4,0,0,0-1.459.605,1.359,1.359,0,0,0-.132.246,1.415,1.415,0,0,0-.082.267,1.468,1.468,0,0,0-.029.278,1.441,1.441,0,0,0,.029.278,1.341,1.341,0,0,0,.082.267,1.363,1.363,0,0,0,.132.246,1.393,1.393,0,0,0,1.182.634,1.206,1.206,0,0,0,.278-.028,1.356,1.356,0,0,0,.267-.078,1.473,1.473,0,0,0,.246-.132,1.542,1.542,0,0,0,.217-.178,1.419,1.419,0,0,0,.417-1.007,1.466,1.466,0,0,0-.025-.278A1.78,1.78,0,0,0,314,70.535Z" transform="translate(-202.681 -46.756)" fill="#494151"/>
      <path id="Path_301" data-name="Path 301" d="M145.019,164.283a3.6,3.6,0,0,0,3.29,2.093c.067,0,.133,0,.2-.006a3.573,3.573,0,0,0,3.218-2.422l.033-.1a9.35,9.35,0,0,0-.884-7.668,6.843,6.843,0,0,0-6.993-3.5c-4.8.419-6.347,4.745-6.206,8.337a1.424,1.424,0,1,0,2.846-.111c-.06-1.531.178-5.118,3.654-5.392a1.429,1.429,0,0,0,.178-.025,3.676,3.676,0,0,1,1.635.132,8.2,8.2,0,0,0-.971,8.662Zm3.232-6.93q.09.134.178.281a6.505,6.505,0,0,1,.623,5.338l-.021.063a.722.722,0,0,1-.673.493.754.754,0,0,1-.754-.44,5.347,5.347,0,0,1,.646-5.735Z" transform="translate(-90.889 -100.182)" fill="#494151"/>
    </g>
  </g>
</svg>
