<svg xmlns="http://www.w3.org/2000/svg" width="109.482" height="109.482" viewBox="0 0 109.482 109.482">
  <g id="coding" transform="translate(-1 -1)">
    <path id="Path_320" data-name="Path 320" d="M93.823,45.683A21.19,21.19,0,0,1,107.95,65.667V74.5H2V65.667A21.19,21.19,0,0,1,16.127,45.683" transform="translate(0.766 34.22)" fill="#2d4d83"/>
    <path id="Path_321" data-name="Path 321" d="M27.328,58.443A48.108,48.108,0,0,1,20,32.92V26.658l11.808-7.872A16.2,16.2,0,0,1,40.8,16.063,16.207,16.207,0,0,0,50.929,12.51L55.317,9l4.1,6.147a17.658,17.658,0,0,1,2.965,9.8V32.92a48.1,48.1,0,0,1-7.331,25.525" transform="translate(14.551 6.127)" fill="#fadfb2"/>
    <path id="Path_322" data-name="Path 322" d="M24.914,36.176a48.068,48.068,0,0,1-1.851-13.212V22h-2.3a4.768,4.768,0,0,0-2.977,8.492l7.123,5.681Z" transform="translate(11.488 16.083)" fill="#f5cf88"/>
    <path id="Path_323" data-name="Path 323" d="M43.029,36.127,50.067,30.5A4.77,4.77,0,0,0,47.09,22h-2.3v.964a48.072,48.072,0,0,1-1.832,13.149Z" transform="translate(32.136 16.083)" fill="#f5cf88"/>
    <path id="Path_324" data-name="Path 324" d="M68.506,37.317l4.787-13.164A16.511,16.511,0,0,0,57.776,2H42.785A58.094,58.094,0,0,0,12,10.828l4.255,1.414a6.3,6.3,0,0,1,3.865,8.322,6.306,6.306,0,0,0,.214,5.156l5.79,11.6v-5.3l11.808-7.872a16.2,16.2,0,0,1,8.993-2.723,16.207,16.207,0,0,0,10.128-3.553l4.387-3.51,4.1,6.147a17.659,17.659,0,0,1,2.965,9.8Z" transform="translate(8.425 0.766)" fill="#976947"/>
    <path id="Path_325" data-name="Path 325" d="M24,22H34.6v7.063A3.532,3.532,0,0,1,31.063,32.6H27.532A3.532,3.532,0,0,1,24,29.063Z" transform="translate(17.614 16.083)" fill="#f2f0eb"/>
    <path id="Path_326" data-name="Path 326" d="M34,22H44.6v7.063A3.532,3.532,0,0,1,41.063,32.6H37.532A3.532,3.532,0,0,1,34,29.063Z" transform="translate(25.273 16.083)" fill="#f2f0eb"/>
    <path id="Path_327" data-name="Path 327" d="M30,23h7.063v3.532H30Z" transform="translate(22.209 16.848)" fill="#a8b0bc"/>
    <path id="Path_328" data-name="Path 328" d="M10,81.146V44.063A7.063,7.063,0,0,1,17.063,37h63.57A7.063,7.063,0,0,1,87.7,44.063V81.146" transform="translate(6.893 27.57)" fill="#d5cec2"/>
    <ellipse id="Ellipse_55" data-name="Ellipse 55" cx="5.189" cy="5.622" rx="5.189" ry="5.622" transform="translate(50.297 88.86)" fill="#e7e4dd"/>
    <g id="Group_103" data-name="Group 103" transform="translate(36.314 68.617)">
      <path id="Path_329" data-name="Path 329" d="M28.58,55.917l-7.063-7.063a1.766,1.766,0,0,1,0-2.5l7.063-7.063,2.5,2.5-5.815,5.815,5.815,5.813Z" transform="translate(-20.999 -39.292)" fill="#c66b60"/>
      <path id="Path_330" data-name="Path 330" d="M39.791,55.917l-2.5-2.5,5.815-5.813-5.815-5.815,2.5-2.5,7.063,7.063a1.766,1.766,0,0,1,0,2.5Z" transform="translate(-8.521 -39.292)" fill="#c66b60"/>
      <path id="Path_331" data-name="Path 331" d="M0,0H17.658V3.532H0Z" transform="matrix(0.6, -0.8, 0.8, 0.6, 12.714, 14.33)" fill="#c66b60"/>
    </g>
    <path id="Path_332" data-name="Path 332" d="M110.482,99.887A22.989,22.989,0,0,0,96.355,78.707V71.633A8.838,8.838,0,0,0,87.526,62.8H72.661a49.762,49.762,0,0,0,3.931-9.477l6.71-5.372a6.523,6.523,0,0,0-3.864-11.617L83.373,25.52A18.275,18.275,0,0,0,66.2,1H51.21a59.809,59.809,0,0,0-31.723,9.1,1.766,1.766,0,0,0,.378,3.179l4.257,1.413A4.536,4.536,0,0,1,26.9,20.673a8.068,8.068,0,0,0,.275,6.6l4.552,9.1A6.514,6.514,0,0,0,28.18,47.957l6.71,5.37A49.774,49.774,0,0,0,38.821,62.8H23.956a8.838,8.838,0,0,0-8.829,8.829v7.072A22.989,22.989,0,0,0,1,99.887v8.829a1.766,1.766,0,0,0,1.766,1.766h105.95a1.766,1.766,0,0,0,1.766-1.766ZM69.868,36.317h-10.6a1.766,1.766,0,0,0-1.766,1.766v1.766H53.975V38.083a1.766,1.766,0,0,0-1.766-1.766H36.317V33.73L47.339,26.38a14.4,14.4,0,0,1,8.012-2.424,18.042,18.042,0,0,0,11.231-3.94l2.884-2.31,3.03,4.545a15.836,15.836,0,0,1,2.67,8.815v5.25ZM68.1,39.848v5.3a1.766,1.766,0,0,1-1.766,1.766H62.8a1.766,1.766,0,0,1-1.766-1.766v-5.3Zm-17.658,0v5.3a1.766,1.766,0,0,1-1.766,1.766H45.146a1.766,1.766,0,0,1-1.766-1.766v-5.3Zm31.785,3A2.99,2.99,0,0,1,81.1,45.2l-3.2,2.56a49.71,49.71,0,0,0,.766-7.909h.56A3,3,0,0,1,82.228,42.85ZM30.177,21.983a8.066,8.066,0,0,0-4.944-10.646l-.53-.177A56.265,56.265,0,0,1,51.21,4.532H66.2A14.743,14.743,0,0,1,80.058,24.309l-1.536,4.222a19.369,19.369,0,0,0-3.088-8.245l-4.1-6.142a1.766,1.766,0,0,0-2.571-.4l-4.388,3.512a14.506,14.506,0,0,1-9.025,3.166,17.921,17.921,0,0,0-9.972,3.018L33.571,31.314a1.7,1.7,0,0,0-.3.26L30.33,25.7a4.543,4.543,0,0,1-.154-3.712Zm.2,23.215a3,3,0,0,1,1.875-5.35h.554a50.125,50.125,0,0,0,.768,7.911Zm5.963-5.35h3.505v5.3a5.3,5.3,0,0,0,5.3,5.3h3.532a5.3,5.3,0,0,0,5.3-5.3V43.38h3.532v1.766a5.3,5.3,0,0,0,5.3,5.3h3.532a5.3,5.3,0,0,0,5.3-5.3v-5.3h3.5A46.265,46.265,0,0,1,68.586,62.8H42.9A46.265,46.265,0,0,1,36.343,39.848ZM23.956,66.336h63.57a5.3,5.3,0,0,1,5.3,5.3V106.95H18.658V71.633A5.3,5.3,0,0,1,23.956,66.336ZM4.532,99.887a19.458,19.458,0,0,1,10.6-17.293V106.95H4.532ZM106.95,106.95h-10.6V82.592a19.46,19.46,0,0,1,10.6,17.295Z" transform="translate(0 0)"/>
    <path id="Path_333" data-name="Path 333" d="M35.063,64.127A7.063,7.063,0,1,0,28,57.063,7.063,7.063,0,0,0,35.063,64.127Zm0-10.595a3.532,3.532,0,1,1-3.532,3.532A3.532,3.532,0,0,1,35.063,53.532Z" transform="translate(20.678 37.526)"/>
    <path id="Path_334" data-name="Path 334" d="M28.58,55.917l2.5-2.5-5.815-5.813,5.815-5.815-2.5-2.5-7.063,7.063a1.766,1.766,0,0,0,0,2.5Z" transform="translate(15.316 29.325)"/>
    <path id="Path_335" data-name="Path 335" d="M39.791,55.917l7.063-7.063a1.766,1.766,0,0,0,0-2.5l-7.063-7.063-2.5,2.5,5.815,5.815-5.815,5.813Z" transform="translate(27.794 29.325)"/>
    <path id="Path_336" data-name="Path 336" d="M0,0H17.658V3.532H0Z" transform="matrix(0.6, -0.8, 0.8, 0.6, 49.028, 82.947)"/>
  </g>
</svg>
