<svg id="phone_iphone_black_24dp" xmlns="http://www.w3.org/2000/svg" width="65" height="65" viewBox="0 0 65 65">
  <path id="Path_243" data-name="Path 243" d="M0,0H65V65H0Z" fill="none"/>
  <path id="Path_244" data-name="Path 244" d="M33.437,1H11.771A6.773,6.773,0,0,0,5,7.771V53.812a6.773,6.773,0,0,0,6.771,6.771H33.437a6.773,6.773,0,0,0,6.771-6.771V7.771A6.773,6.773,0,0,0,33.437,1ZM22.6,57.875a4.063,4.063,0,1,1,4.063-4.062A4.057,4.057,0,0,1,22.6,57.875ZM34.792,47.042H10.417V9.125H34.792Z" transform="translate(8.542 1.708)" fill="#17cc9a"/>
</svg>
