<svg xmlns="http://www.w3.org/2000/svg" width="79.385" height="79.385" viewBox="0 0 79.385 79.385">
  <g id="Polygon_2" data-name="Polygon 2" transform="matrix(0.951, 0.309, -0.309, 0.951, 19.468, 0)" fill="none">
    <path d="M31.5,0l6.3,25.2L63,31.5,37.8,37.8,31.5,63,25.2,37.8,0,31.5l25.2-6.3Z" stroke="none"/>
    <path d="M 31.5 8.246231079101562 L 26.84923934936523 26.84923934936523 L 8.246231079101562 31.5 L 26.84923934936523 36.15076065063477 L 31.5 54.75376892089844 L 36.15076065063477 36.15076065063477 L 54.75376892089844 31.5 L 36.15076065063477 26.84923934936523 L 31.5 8.246231079101562 M 31.5 0 L 37.79999923706055 25.20000076293945 L 63 31.5 L 37.79999923706055 37.79999923706055 L 31.5 63 L 25.20000076293945 37.79999923706055 L 0 31.5 L 25.20000076293945 25.20000076293945 L 31.5 0 Z" stroke="none" fill="#ff5ea4"/>
  </g>
</svg>
