<svg xmlns="http://www.w3.org/2000/svg" width="108.641" height="120.101" viewBox="0 0 108.641 120.101">
  <g id="web-design" transform="translate(-24.43 0)">
    <g id="Group_101" data-name="Group 101" transform="translate(26.775 2.348)">
      <path id="Path_311" data-name="Path 311" d="M131.249,76.585h-6.255L110.018,94.843l-8.085,9.857s3.665,8.068-2.949,12.7c-5.386,3.77-13.263-1.751-19.935,4.625C71.948,95.4,92.333,97.578,92.333,97.578l7.09-10.6,6.957-10.4H41.56a7.13,7.13,0,0,0-7.13,7.13v47.252H138.379V83.715A7.13,7.13,0,0,0,131.249,76.585Z" transform="translate(-34.43 -60.969)" fill="#fff"/>
      <path id="Path_312" data-name="Path 312" d="M34.429,321.757a7.13,7.13,0,0,0,7.13,7.13h89.689a7.13,7.13,0,0,0,7.13-7.13V308.426H34.429Z" transform="translate(-34.429 -238.427)" fill="#a5dbff"/>
      <path id="Path_313" data-name="Path 313" d="M217.783,412.025h17.931l-3.9-16.372H221.681Z" transform="translate(-174.774 -305.193)" fill="#cbcaf3"/>
      <path id="Path_314" data-name="Path 314" d="M168.8,465.45a4.749,4.749,0,0,0-4.749,4.749v3.827H207.19V470.2a4.749,4.749,0,0,0-4.749-4.749H168.8Z" transform="translate(-133.646 -358.618)" fill="#a5dbff"/>
      <path id="Path_315" data-name="Path 315" d="M322.1,43.885l14.976-18.258,2.191-2.671a7.921,7.921,0,1,0-12.708-9.428l-8.1,12.1-6.957,10.4Z" transform="translate(-246.512 -10.01)" fill="#9bbecf"/>
      <path id="Path_316" data-name="Path 316" d="M219.749,190.383c6.672-6.376,14.549-.855,19.935-4.625,6.614-4.629,2.949-12.7,2.949-12.7l-9.6-7.123S212.646,163.756,219.749,190.383Z" transform="translate(-175.129 -129.329)" fill="#fff398"/>
      <path id="Path_317" data-name="Path 317" d="M288.37,120.909l-7.09,10.6,9.6,7.123,8.085-9.857Z" transform="translate(-223.377 -94.896)" fill="#fff"/>
    </g>
    <g id="Group_102" data-name="Group 102" transform="translate(24.43 0)">
      <path id="Path_318" data-name="Path 318" d="M123.594,15.619h-1.425a10.267,10.267,0,0,0-17.3-11.058l-7.4,11.058H33.906a9.487,9.487,0,0,0-9.476,9.476V85.678a9.487,9.487,0,0,0,9.476,9.476H70.713l-2.781,11.681h-6a7.1,7.1,0,0,0-7.095,7.094v1.481h-7.4a2.346,2.346,0,1,0,0,4.691h62.629a2.346,2.346,0,1,0,0-4.691h-7.4v-1.481a7.1,7.1,0,0,0-7.095-7.094h-6L86.788,95.154h36.807a9.487,9.487,0,0,0,9.476-9.476V25.095a9.487,9.487,0,0,0-9.476-9.476ZM89.985,56.856c-3.667,2.567-10.538-.922-17.1,2.579-1.6-8.317-.592-16.138,7.741-17.865a14.931,14.931,0,0,1,3.223-.306l8.486,6.3c1.231,3.581.769,7.112-2.351,9.3Zm2.364-25.143,6.64,4.926-5.106,6.226L87.871,38.4ZM108.772,7.17a5.575,5.575,0,1,1,8.945,6.637l-15.749,19.2-7.007-5.2Zm-10.8,106.759v1.481H59.526v-1.481a2.406,2.406,0,0,1,2.4-2.4H95.571a2.406,2.406,0,0,1,2.4,2.4Zm-13.228-7.094H72.754l2.781-11.681h6.43Zm43.633-21.157a4.79,4.79,0,0,1-4.785,4.784H33.906a4.79,4.79,0,0,1-4.784-4.784V74.693h6.7a2.346,2.346,0,1,0,0-4.691h-6.7V25.095a4.79,4.79,0,0,1,4.784-4.784H94.334L83.454,36.569c-4.6.042-9.186,1.643-12.191,5.15-4.088,4.772-4.807,12.271-2.135,22.288A2.348,2.348,0,0,0,73.016,65.1c6.065-5.8,13.619.526,20.384-4.949,4.129-3.343,5.107-8.657,3.549-13.626l21.5-26.213h5.145a4.79,4.79,0,0,1,4.785,4.784V70H54.59a2.346,2.346,0,1,0,0,4.691h73.79Z" transform="translate(-24.43 0)"/>
      <path id="Path_319" data-name="Path 319" d="M104.921,298.469a2.345,2.345,0,1,0,2.759,1.842A2.343,2.343,0,0,0,104.921,298.469Z" transform="translate(-84.597 -228.423)"/>
    </g>
  </g>
</svg>
